<svg width="24" height="24" viewBox="0 0 24 24" fill="none" xmlns="http://www.w3.org/2000/svg">
<path d="M22 22.9998H15.999C15.7338 22.9998 15.4794 22.8945 15.2919 22.7069C15.1044 22.5194 14.999 22.265 14.999 21.9998V16.5448C15.0063 16.1467 14.9341 15.7511 14.7868 15.3812C14.6395 15.0113 14.4199 14.6744 14.141 14.3903C13.862 14.1062 13.5292 13.8805 13.162 13.7265C12.7949 13.5724 12.4007 13.4931 12.0025 13.4931C11.6043 13.4931 11.2101 13.5724 10.843 13.7265C10.4758 13.8805 10.143 14.1062 9.86403 14.3903C9.58506 14.6744 9.3655 15.0113 9.21818 15.3812C9.07086 15.7511 8.99873 16.1467 9.006 16.5448V21.9998C9.006 22.265 8.90064 22.5194 8.71311 22.7069C8.52557 22.8945 8.27122 22.9998 8.006 22.9998H2C1.73478 22.9998 1.48043 22.8945 1.29289 22.7069C1.10536 22.5194 1 22.265 1 21.9998V11.5428C1.00009 11.4074 1.02761 11.2735 1.08088 11.1491C1.13416 11.0246 1.2121 10.9123 1.31 10.8188L11.31 1.27581C11.4961 1.09875 11.7431 1 12 1C12.2569 1 12.5039 1.09875 12.69 1.27581L22.69 10.8188C22.7879 10.9123 22.8658 11.0246 22.9191 11.1491C22.9724 11.2735 22.9999 11.4074 23 11.5428V21.9998C23 22.265 22.8946 22.5194 22.7071 22.7069C22.5196 22.8945 22.2652 22.9998 22 22.9998Z" fill="white"/>
</svg>
