<svg width="24" height="24" viewBox="0 0 24 24" fill="none" xmlns="http://www.w3.org/2000/svg">
<path d="M12.0032 2.00147C13.3032 1.95973 14.5984 2.17973 15.8117 2.64841C17.025 3.1171 18.1318 3.82489 19.0661 4.72974C20.0005 5.6346 20.7435 6.71804 21.2508 7.91569C21.7582 9.11335 22.0197 10.4008 22.0197 11.7015C22.0197 13.0022 21.7582 14.2896 21.2508 15.4873C20.7435 16.6849 20.0005 17.7684 19.0661 18.6732C18.1318 19.5781 17.025 20.2859 15.8117 20.7545C14.5984 21.2232 13.3032 21.4432 12.0032 21.4015C11.0253 21.4042 10.0515 21.275 9.1082 21.0175C8.93122 20.9691 8.74299 20.9833 8.5752 21.0575L6.5912 21.9335C6.47124 21.9862 6.34016 22.0087 6.20947 21.999C6.07878 21.9893 5.95247 21.9477 5.84162 21.8778C5.73076 21.8079 5.63875 21.7119 5.57364 21.5982C5.50854 21.4844 5.47233 21.3565 5.4682 21.2255L5.4142 19.4455C5.40969 19.3374 5.38346 19.2313 5.33708 19.1335C5.29069 19.0358 5.22509 18.9483 5.1442 18.8765C4.14037 17.9728 3.341 16.8653 2.7995 15.628C2.25801 14.3907 1.98686 13.052 2.0042 11.7015C1.9966 10.4 2.25234 9.11047 2.75603 7.91042C3.25972 6.71036 4.00096 5.62459 4.93515 4.71843C5.86934 3.81226 6.97717 3.10443 8.19201 2.63752C9.40685 2.1706 10.7026 1.95425 12.0032 2.00147Z" stroke="white" stroke-width="1.739" stroke-miterlimit="10"/>
<path fill-rule="evenodd" clip-rule="evenodd" d="M17.7901 10.1322C17.8736 10.0011 17.9081 9.84464 17.8875 9.69054C17.8668 9.53645 17.7923 9.39462 17.6772 9.29013C17.562 9.18565 17.4137 9.12523 17.2583 9.11958C17.1029 9.11392 16.9505 9.16338 16.8281 9.25922L14.2721 11.3092C14.1631 11.3918 14.0302 11.4366 13.8934 11.437C13.7567 11.4373 13.6235 11.3932 13.5141 11.3112L11.0601 9.47022C10.886 9.33988 10.6868 9.24698 10.4751 9.19737C10.2633 9.14776 10.0436 9.14252 9.82969 9.18197C9.61581 9.22142 9.41242 9.30471 9.2323 9.4266C9.05218 9.54849 8.89924 9.70634 8.7831 9.89022L6.2161 13.8702C6.13181 14.0012 6.09667 14.1579 6.11691 14.3124C6.13716 14.4668 6.21147 14.6091 6.32666 14.714C6.44185 14.8189 6.59048 14.8796 6.74617 14.8853C6.90185 14.891 7.05453 14.8414 7.1771 14.7452L9.7331 12.6962C9.8422 12.6134 9.97531 12.5685 10.1123 12.5681C10.2492 12.5677 10.3826 12.612 10.4921 12.6942L12.9441 14.5342C13.1182 14.6647 13.3175 14.7578 13.5293 14.8075C13.7412 14.8572 13.9611 14.8625 14.1751 14.823C14.3891 14.7835 14.5926 14.7002 14.7728 14.5782C14.953 14.4562 15.106 14.2982 15.2221 14.1142L17.7901 10.1322Z" fill="white"/>
</svg>
