<svg width="24" height="24" viewBox="0 0 24 24" fill="none" xmlns="http://www.w3.org/2000/svg">
<path d="M2.04883 7.00195H21.9498" stroke="white" stroke-width="2" stroke-linejoin="round"/>
<path d="M13.5039 2.00098L16.3619 7.00198" stroke="white" stroke-width="2" stroke-linecap="round" stroke-linejoin="round"/>
<path d="M7.20703 2.11035L10.002 7.00235" stroke="white" stroke-width="2" stroke-linecap="round" stroke-linejoin="round"/>
<path d="M2 12.001V15.45C2 18.299 2.698 19.456 3.606 20.395C4.546 21.303 5.704 22.002 8.552 22.002H15.448C18.296 22.002 19.454 21.303 20.394 20.395C21.302 19.456 22 18.299 22 15.45V8.552C22 5.704 21.302 4.546 20.394 3.607C19.454 2.699 18.296 2 15.448 2H8.552C5.704 2 4.546 2.699 3.606 3.607C2.698 4.546 2 5.704 2 8.552V12.001Z" stroke="white" stroke-width="2" stroke-linecap="round" stroke-linejoin="round"/>
<path fill-rule="evenodd" clip-rule="evenodd" d="M9.76308 17.6638C9.62495 17.584 9.51027 17.4693 9.43057 17.3312C9.35087 17.193 9.30897 17.0363 9.30908 16.8768V11.6298C9.30889 11.4701 9.35078 11.3132 9.43053 11.1748C9.51029 11.0364 9.62508 10.9215 9.76337 10.8416C9.90165 10.7617 10.0585 10.7197 10.2182 10.7197C10.378 10.7198 10.5348 10.7619 10.6731 10.8418L15.2181 13.4658C15.3564 13.5455 15.4713 13.6603 15.5511 13.7986C15.631 13.9368 15.6731 14.0936 15.6731 14.2533C15.6731 14.413 15.631 14.5698 15.5511 14.708C15.4713 14.8463 15.3564 14.9611 15.2181 15.0408L10.6731 17.6648C10.5347 17.7447 10.3778 17.7867 10.2181 17.7867C10.0583 17.7867 9.90142 17.7447 9.76308 17.6648V17.6638Z" fill="white"/>
</svg>
