<svg width="24" height="24" viewBox="0 0 24 24" fill="none" xmlns="http://www.w3.org/2000/svg">
<path d="M16.7922 3.90446C18.1066 3.97713 19.339 4.56636 20.2209 5.54376C21.1028 6.52117 21.5626 7.8075 21.5002 9.12246C21.5002 12.1945 18.8482 14.0815 16.3032 16.3445C13.7912 18.5875 12.4382 19.8135 12.0002 20.0965C11.5232 19.7875 9.85717 18.2735 7.69717 16.3445C5.14117 14.0725 2.50017 12.1675 2.50017 9.12246C2.43773 7.8075 2.89755 6.52117 3.77943 5.54376C4.6613 4.56636 5.89373 3.97713 7.20817 3.90446C7.93631 3.88239 8.65772 4.04964 9.30188 4.38986C9.94603 4.73008 10.4909 5.23162 10.8832 5.84546C11.7232 7.02046 11.8632 7.60846 12.0032 7.60846C12.1432 7.60846 12.2812 7.02046 13.1132 5.84246C13.5032 5.22578 14.0483 4.72225 14.6939 4.38217C15.3395 4.04209 16.063 3.87737 16.7922 3.90446ZM16.7922 1.90446C15.8841 1.87539 14.9812 2.05154 14.1506 2.41981C13.3201 2.78808 12.5833 3.33897 11.9952 4.03146C11.4075 3.34099 10.6723 2.79137 9.84371 2.42321C9.01515 2.05506 8.11445 1.87777 7.20817 1.90446C5.36304 1.97661 3.62155 2.77644 2.36451 4.12906C1.10747 5.48167 0.43716 7.277 0.500165 9.12246C0.500165 12.7325 3.05017 14.9495 5.51517 17.0925C5.79817 17.3385 6.08417 17.5865 6.36817 17.8395L7.39517 18.7575C8.51521 19.8232 9.68943 20.8306 10.9132 21.7755C11.2369 21.9851 11.6144 22.0966 12.0002 22.0966C12.3859 22.0966 12.7634 21.9851 13.0872 21.7755C14.3499 20.8017 15.5602 19.7619 16.7132 18.6605L17.6352 17.8365C17.9282 17.5765 18.2252 17.3175 18.5202 17.0625C20.8542 15.0375 23.5002 12.7425 23.5002 9.12246C23.5632 7.277 22.8929 5.48167 21.6358 4.12906C20.3788 2.77644 18.6373 1.97661 16.7922 1.90446Z" fill="white"/>
</svg>
